# xmcd CD database file
#
# Track frame offsets:
#	150
#	28455
#	54507
#	82417
#	87353
#	110365
#	139113
#	160108
#
# Disc length: 2493 seconds
#
# Revision: 0
# Processed by: cddbd v1.5.2PL0 Copyright (c) Steve Scherf et al.
# Submitted via: CDex 1.51
#
DISCID=6b09bb08
DTITLE=IMMIGRANT'S BOSSA BAND - NOVA
DYEAR=2011
DGENRE=Jazz
TTITLE0=Trigger
TTITLE1=M.N.D
TTITLE2=La Isla Bonita
TTITLE3=Immigrant's Samba Dois
TTITLE4=Samba De Beijo(Kiss Of Life)
TTITLE5=Calling
TTITLE6=Esperanza
TTITLE7=BONITO
EXTD=YEAR: 2011
EXTT0=
EXTT1=
EXTT2=
EXTT3=
EXTT4=
EXTT5=
EXTT6=
EXTT7=
PLAYORDER=
